<svg xmlns="http://www.w3.org/2000/svg" xmlns:xlink="http://www.w3.org/1999/xlink" width="72" height="72"><path fill="black" stroke="black" d="M3.30 45.21L9.35 45.21L9.35 45.21Q9.77 55.86 18.56 55.86L18.56 55.86L18.56 55.86Q21.73 55.86 23.84 54.28L23.84 54.28L23.84 54.28Q26.79 52.00 26.79 47.88L26.79 47.88L26.79 47.88Q26.79 43.45 23.10 40.08L23.10 40.08L23.10 40.08Q20.57 37.83 14.41 34.28L14.41 34.28L14.41 34.28Q4.68 28.55 4.68 20.60L4.68 20.60L4.68 20.60Q4.68 15.57 7.84 12.09L7.84 12.09L7.84 12.09Q11.67 7.84 18.07 7.84L18.07 7.84L18.07 7.84Q29.99 7.84 31.61 22.18L31.61 22.18L25.70 22.18L25.70 22.18Q25.45 18.88 24.33 16.91L24.33 16.91L24.33 16.91Q22.08 12.94 18.07 12.94L18.07 12.94L18.07 12.94Q13.92 12.94 11.88 15.75L11.88 15.75L11.88 15.75Q10.44 17.75 10.44 20.14L10.44 20.14L10.44 20.14Q10.44 25.84 19.72 31.25L19.72 31.25L19.72 31.25Q25.45 34.59 28.51 37.65L28.51 37.65L28.51 37.65Q32.63 41.66 32.63 47.81L32.63 47.81L32.63 47.81Q32.63 53.61 28.93 57.16L28.93 57.16L28.93 57.16Q25.00 61.14 18.74 61.14L18.74 61.14L18.74 61.14Q10.90 61.14 6.54 55.37L6.54 55.37L6.54 55.37Q3.52 51.36 3.30 45.21L3.30 45.21ZM41.03 59.70L41.03 9.28L66.30 9.28L66.30 14.77L46.79 14.77L46.79 30.80L63.70 30.80L63.70 36.14L46.79 36.14L46.79 54.21L67.75 54.21L67.75 59.70L41.03 59.70Z"/></svg>